<svg version="1.1" id="Layer_1" xmlns="http://www.w3.org/2000/svg" xmlns:xlink="http://www.w3.org/1999/xlink" x="0px" y="0px"
	 width="100%" viewBox="0 0 512 512" enable-background="new 0 0 512 512" xml:space="preserve">
<path fill="#FFFFFF" opacity="1.000000" stroke="none" 
	d="
M258.000000,1.000001 
	C342.959686,1.000000 427.919403,1.000000 512.939575,1.000000 
	C512.939575,171.545425 512.939575,342.090881 512.939575,513.000000 
	C462.312469,513.000000 411.624084,513.000000 360.613953,512.606812 
	C372.076843,511.091034 383.381042,508.119751 394.506592,504.067200 
	C413.320587,497.214020 429.837585,486.745697 444.324646,473.093567 
	C458.902893,459.355469 469.951965,443.108612 478.095306,424.760162 
	C484.574036,410.162506 488.301178,394.844757 489.764160,379.142273 
	C490.692383,369.179688 489.664978,358.979828 488.926056,348.929626 
	C487.756317,333.020111 482.983093,318.052063 476.249908,303.620483 
	C466.689819,283.129791 452.714111,266.241455 435.416443,251.845947 
	C418.385986,237.672775 398.873749,228.570801 377.590729,223.163666 
	C373.926727,222.232819 372.912933,221.061676 372.927917,217.467407 
	C373.054291,187.140564 372.914551,156.812454 373.099640,126.486214 
	C373.125031,122.324730 371.667572,119.334816 369.010162,116.511581 
	C364.826508,112.066849 360.775452,107.496750 356.569427,103.073730 
	C342.762299,88.554298 328.952057,74.037392 315.063354,59.596115 
	C303.441864,47.512226 291.708740,35.535709 280.024750,23.511936 
	C279.445435,22.915762 278.863617,22.321993 278.282257,21.727823 
	C271.521576,14.818474 264.760773,7.909256 258.000000,1.000001 
z"/>
<path fill="#000000" opacity="1.000000" stroke="none" 
	d="
M257.531342,1.000001 
	C264.760773,7.909256 271.521576,14.818474 278.282257,21.727823 
	C278.863617,22.321993 279.445435,22.915762 280.024750,23.511936 
	C291.708740,35.535709 303.441864,47.512226 315.063354,59.596115 
	C328.952057,74.037392 342.762299,88.554298 356.569427,103.073730 
	C360.775452,107.496750 364.826508,112.066849 369.010162,116.511581 
	C371.667572,119.334816 373.125031,122.324730 373.099640,126.486214 
	C372.914551,156.812454 373.054291,187.140564 372.927917,217.467407 
	C372.912933,221.061676 373.926727,222.232819 377.590729,223.163666 
	C398.873749,228.570801 418.385986,237.672775 435.416443,251.845947 
	C452.714111,266.241455 466.689819,283.129791 476.249908,303.620483 
	C482.983093,318.052063 487.756317,333.020111 488.926056,348.929626 
	C489.664978,358.979828 490.692383,369.179688 489.764160,379.142273 
	C488.301178,394.844757 484.574036,410.162506 478.095306,424.760162 
	C469.951965,443.108612 458.902893,459.355469 444.324646,473.093567 
	C429.837585,486.745697 413.320587,497.214020 394.506592,504.067200 
	C383.381042,508.119751 372.076843,511.091034 360.146088,512.606812 
	C348.979095,513.000000 337.958221,513.000000 326.319214,512.604248 
	C321.644684,511.743988 317.492676,511.682892 313.547943,510.747498 
	C292.735535,505.812469 273.252930,497.970917 255.884766,485.071991 
	C241.372345,474.293945 229.233414,461.355042 219.395782,446.372955 
	C217.076279,442.840454 215.111282,441.941132 211.413193,441.947815 
	C166.766022,442.028412 122.118675,442.000244 77.471375,441.998962 
	C75.972122,441.998901 74.420021,442.236542 72.981789,441.936157 
	C58.395050,438.889130 45.459698,433.020020 36.151291,420.698181 
	C29.073586,411.329193 24.058010,401.137421 24.049120,389.225922 
	C23.966190,278.107483 23.934301,166.988907 24.063263,55.870567 
	C24.085318,36.867298 32.582794,21.672295 48.188671,11.203809 
	C55.006264,6.630540 63.349560,4.331705 71.000000,1.000000 
	C133.020889,1.000000 195.041794,1.000000 257.531342,1.000001 
M339.482910,137.000000 
	C320.240845,136.667023 300.957550,136.986496 281.771057,135.773911 
	C268.771851,134.952362 258.658997,127.530136 250.998184,116.996368 
	C244.563522,108.148544 242.256958,97.931503 242.090576,87.331558 
	C241.776749,67.338959 242.004761,47.337925 241.989914,27.340414 
	C241.988861,25.918148 241.843719,24.495987 241.761536,23.000042 
	C186.989334,23.000042 132.669006,22.999722 78.348679,23.003021 
	C77.518463,23.003073 76.662186,22.923061 75.861855,23.090139 
	C58.093952,26.799433 45.267258,41.833073 45.938957,60.508484 
	C46.286148,70.161461 46.000000,79.837227 46.000000,89.502693 
	C46.000000,188.323792 45.987335,287.144867 46.020508,385.965973 
	C46.023659,395.360992 50.015041,403.442017 56.528248,409.688446 
	C64.702126,417.527557 75.093758,420.137482 86.452164,420.077087 
	C124.613014,419.874268 162.775620,420.000000 200.937561,420.000000 
	C202.481461,420.000000 204.025345,420.000000 205.831894,420.000000 
	C194.275864,391.134308 193.642197,361.895294 199.238464,332.000122 
	C197.604477,332.000122 196.788071,332.000092 195.971664,332.000092 
	C167.308548,332.000061 138.645279,331.953918 109.982445,332.044189 
	C105.055840,332.059692 101.844872,329.719879 100.060410,325.530701 
	C96.956284,318.243530 101.717377,309.933502 111.978508,309.966248 
	C141.807846,310.061462 171.637680,310.000000 201.467316,310.000000 
	C203.242462,310.000000 205.017624,310.000000 205.852509,310.000000 
	C212.271683,298.867004 218.267120,288.468903 224.303375,278.000000 
	C222.810822,278.000000 221.177322,278.000000 219.543839,278.000000 
	C183.381653,278.000000 147.219467,278.008362 111.057274,277.992676 
	C104.127457,277.989685 99.197327,273.335815 99.000755,266.725952 
	C98.819023,260.615173 103.926224,256.001404 110.890694,256.001068 
	C154.385300,255.998947 197.879929,256.011322 241.374481,255.957779 
	C243.083618,255.955673 245.259827,255.892242 246.428131,254.913773 
	C257.751099,245.430756 270.048340,237.687851 283.593903,231.661789 
	C301.144562,223.853943 319.447296,219.903275 338.512268,219.027420 
	C342.604462,218.839417 346.712677,219.000000 350.706848,219.000000 
	C350.706848,191.344437 350.706848,164.274475 350.706848,137.000000 
	C347.102570,137.000000 343.789734,137.000000 339.482910,137.000000 
M449.966156,430.390167 
	C461.336792,411.791443 466.948944,391.330322 467.753113,369.798767 
	C468.139496,359.453949 467.113220,348.715240 464.644867,338.666290 
	C455.819824,302.738556 435.233704,275.166382 402.800781,257.053467 
	C376.850922,242.561127 349.004425,238.637985 319.812897,243.979187 
	C286.065887,250.153915 259.511780,268.005524 240.232407,295.780609 
	C220.637680,324.010071 213.904572,355.895660 220.191147,389.780884 
	C224.216507,411.477814 233.781189,431.180878 248.441925,447.712555 
	C268.030151,469.800385 292.277679,484.081512 321.857208,489.195740 
	C337.516174,491.903137 353.013794,491.814575 368.285889,488.675110 
	C385.353210,485.166534 401.287598,478.153259 415.471252,467.818726 
	C429.206421,457.811005 440.811432,445.714050 449.966156,430.390167 
M293.660461,115.000000 
	C307.259369,115.000000 320.858246,115.000000 335.919373,115.000000 
	C311.979523,89.807640 288.837646,65.455002 265.000336,40.370552 
	C265.000336,58.502354 264.899170,75.436737 265.101196,92.367508 
	C265.134369,95.147362 265.940430,98.242676 267.349213,100.624352 
	C272.993042,110.165497 281.576813,114.928314 293.660461,115.000000 
z"/>
<path fill="#FFFFFF" opacity="1.000000" stroke="none" 
	d="
M70.531342,1.000000 
	C63.349560,4.331705 55.006264,6.630540 48.188671,11.203809 
	C32.582794,21.672295 24.085318,36.867298 24.063263,55.870567 
	C23.934301,166.988907 23.966190,278.107483 24.049120,389.225922 
	C24.058010,401.137421 29.073586,411.329193 36.151291,420.698181 
	C45.459698,433.020020 58.395050,438.889130 72.981789,441.936157 
	C74.420021,442.236542 75.972122,441.998901 77.471375,441.998962 
	C122.118675,442.000244 166.766022,442.028412 211.413193,441.947815 
	C215.111282,441.941132 217.076279,442.840454 219.395782,446.372955 
	C229.233414,461.355042 241.372345,474.293945 255.884766,485.071991 
	C273.252930,497.970917 292.735535,505.812469 313.547943,510.747498 
	C317.492676,511.682892 321.644684,511.743988 325.850525,512.604248 
	C217.718933,513.000000 109.437859,513.000000 1.078397,513.000000 
	C1.078397,342.333344 1.078397,171.666687 1.078397,1.000000 
	C24.084866,1.000000 47.073772,1.000000 70.531342,1.000000 
z"/>
<path fill="#FFFFFF" opacity="1.000000" stroke="none" 
	d="
M339.979919,137.000000 
	C343.789734,137.000000 347.102570,137.000000 350.706848,137.000000 
	C350.706848,164.274475 350.706848,191.344437 350.706848,219.000000 
	C346.712677,219.000000 342.604462,218.839417 338.512268,219.027420 
	C319.447296,219.903275 301.144562,223.853943 283.593903,231.661789 
	C270.048340,237.687851 257.751099,245.430756 246.428131,254.913773 
	C245.259827,255.892242 243.083618,255.955673 241.374481,255.957779 
	C197.879929,256.011322 154.385300,255.998947 110.890694,256.001068 
	C103.926224,256.001404 98.819023,260.615173 99.000755,266.725952 
	C99.197327,273.335815 104.127457,277.989685 111.057274,277.992676 
	C147.219467,278.008362 183.381653,278.000000 219.543839,278.000000 
	C221.177322,278.000000 222.810822,278.000000 224.303375,278.000000 
	C218.267120,288.468903 212.271683,298.867004 205.852509,310.000000 
	C205.017624,310.000000 203.242462,310.000000 201.467316,310.000000 
	C171.637680,310.000000 141.807846,310.061462 111.978508,309.966248 
	C101.717377,309.933502 96.956284,318.243530 100.060410,325.530701 
	C101.844872,329.719879 105.055840,332.059692 109.982445,332.044189 
	C138.645279,331.953918 167.308548,332.000061 195.971664,332.000092 
	C196.788071,332.000092 197.604477,332.000122 199.238464,332.000122 
	C193.642197,361.895294 194.275864,391.134308 205.831894,420.000000 
	C204.025345,420.000000 202.481461,420.000000 200.937561,420.000000 
	C162.775620,420.000000 124.613014,419.874268 86.452164,420.077087 
	C75.093758,420.137482 64.702126,417.527557 56.528248,409.688446 
	C50.015041,403.442017 46.023659,395.360992 46.020508,385.965973 
	C45.987335,287.144867 46.000000,188.323792 46.000000,89.502693 
	C46.000000,79.837227 46.286148,70.161461 45.938957,60.508484 
	C45.267258,41.833073 58.093952,26.799433 75.861855,23.090139 
	C76.662186,22.923061 77.518463,23.003073 78.348679,23.003021 
	C132.669006,22.999722 186.989334,23.000042 241.761536,23.000042 
	C241.843719,24.495987 241.988861,25.918148 241.989914,27.340414 
	C242.004761,47.337925 241.776749,67.338959 242.090576,87.331558 
	C242.256958,97.931503 244.563522,108.148544 250.998184,116.996368 
	C258.658997,127.530136 268.771851,134.952362 281.771057,135.773911 
	C300.957550,136.986496 320.240845,136.667023 339.979919,137.000000 
M223.335342,223.145645 
	C226.816040,221.700058 228.606613,219.142609 229.038727,215.345673 
	C229.948700,207.349808 225.458557,201.989349 215.752533,201.993820 
	C181.299622,202.009689 146.846695,201.982681 112.393890,202.043167 
	C110.332336,202.046799 108.175377,202.393524 106.230446,203.065659 
	C101.806671,204.594467 98.741341,209.422577 99.001137,213.925171 
	C99.240829,218.079330 103.134674,223.452469 106.581238,223.949249 
	C110.283180,224.482834 114.035011,224.944885 117.766449,224.955460 
	C146.393753,225.036514 175.021729,225.073883 203.648666,224.943008 
	C210.028061,224.913864 216.404190,224.164719 223.335342,223.145645 
z"/>
<path fill="#FFFFFF" opacity="1.000000" stroke="none" 
	d="
M449.738403,430.691101 
	C440.811432,445.714050 429.206421,457.811005 415.471252,467.818726 
	C401.287598,478.153259 385.353210,485.166534 368.285889,488.675110 
	C353.013794,491.814575 337.516174,491.903137 321.857208,489.195740 
	C292.277679,484.081512 268.030151,469.800385 248.441925,447.712555 
	C233.781189,431.180878 224.216507,411.477814 220.191147,389.780884 
	C213.904572,355.895660 220.637680,324.010071 240.232407,295.780609 
	C259.511780,268.005524 286.065887,250.153915 319.812897,243.979187 
	C349.004425,238.637985 376.850922,242.561127 402.800781,257.053467 
	C435.233704,275.166382 455.819824,302.738556 464.644867,338.666290 
	C467.113220,348.715240 468.139496,359.453949 467.753113,369.798767 
	C466.948944,391.330322 461.336792,411.791443 449.738403,430.691101 
M364.432953,334.948975 
	C373.320221,344.493500 382.036255,354.206604 391.180206,363.498535 
	C394.771423,367.147858 398.958832,370.634186 403.540649,372.758484 
	C407.625946,374.652588 412.892883,371.402618 415.296173,367.193329 
	C417.498840,363.335480 416.184906,356.999786 412.335083,352.828796 
	C404.392975,344.224121 396.518616,335.555969 388.505707,327.017822 
	C376.731506,314.471893 364.523285,302.314423 353.145813,289.421509 
	C345.185822,280.401215 336.739746,283.979309 331.053162,290.382874 
	C320.993286,301.711182 310.771301,312.898926 300.459015,323.998627 
	C292.677032,332.374817 284.624573,340.499176 276.746490,348.786957 
	C274.837006,350.795746 272.793243,352.807465 271.433228,355.175110 
	C269.701172,358.190430 267.904633,361.280609 269.629181,365.221710 
	C273.425079,373.896667 282.389404,375.900452 289.251678,369.158569 
	C293.839203,364.651611 298.082794,359.792175 302.434235,355.048218 
	C304.761200,352.511322 306.913422,349.811859 309.278412,347.312469 
	C316.601288,339.573334 323.988434,331.895020 332.000000,323.513733 
	C332.000000,326.116455 332.000000,327.725189 332.000000,329.333893 
	C332.000000,365.163025 331.999268,400.992188 332.000549,436.821320 
	C332.000854,444.594543 336.770660,450.197418 343.172546,449.954346 
	C349.866333,449.700165 353.998596,444.756104 353.999054,436.982300 
	C354.001221,400.986511 354.000000,364.990753 354.000000,328.994965 
	C354.000000,327.446442 354.000000,325.897888 354.000000,323.044373 
	C357.964722,327.514526 360.997498,330.933960 364.432953,334.948975 
z"/>
<path fill="#FFFFFF" opacity="1.000000" stroke="none" 
	d="
M293.183167,115.000000 
	C281.576813,114.928314 272.993042,110.165497 267.349213,100.624352 
	C265.940430,98.242676 265.134369,95.147362 265.101196,92.367508 
	C264.899170,75.436737 265.000336,58.502354 265.000336,40.370552 
	C288.837646,65.455002 311.979523,89.807640 335.919373,115.000000 
	C320.858246,115.000000 307.259369,115.000000 293.183167,115.000000 
z"/>
<path fill="#000000" opacity="1.000000" stroke="none" 
	d="
M223.058578,223.446350 
	C216.404190,224.164719 210.028061,224.913864 203.648666,224.943008 
	C175.021729,225.073883 146.393753,225.036514 117.766449,224.955460 
	C114.035011,224.944885 110.283180,224.482834 106.581238,223.949249 
	C103.134674,223.452469 99.240829,218.079330 99.001137,213.925171 
	C98.741341,209.422577 101.806671,204.594467 106.230446,203.065659 
	C108.175377,202.393524 110.332336,202.046799 112.393890,202.043167 
	C146.846695,201.982681 181.299622,202.009689 215.752533,201.993820 
	C225.458557,201.989349 229.948700,207.349808 229.038727,215.345673 
	C228.606613,219.142609 226.816040,221.700058 223.058578,223.446350 
z"/>
<path fill="#000000" opacity="1.000000" stroke="none" 
	d="
M364.231628,334.651184 
	C360.997498,330.933960 357.964722,327.514526 354.000000,323.044373 
	C354.000000,325.897888 354.000000,327.446442 354.000000,328.994965 
	C354.000000,364.990753 354.001221,400.986511 353.999054,436.982300 
	C353.998596,444.756104 349.866333,449.700165 343.172546,449.954346 
	C336.770660,450.197418 332.000854,444.594543 332.000549,436.821320 
	C331.999268,400.992188 332.000000,365.163025 332.000000,329.333893 
	C332.000000,327.725189 332.000000,326.116455 332.000000,323.513733 
	C323.988434,331.895020 316.601288,339.573334 309.278412,347.312469 
	C306.913422,349.811859 304.761200,352.511322 302.434235,355.048218 
	C298.082794,359.792175 293.839203,364.651611 289.251678,369.158569 
	C282.389404,375.900452 273.425079,373.896667 269.629181,365.221710 
	C267.904633,361.280609 269.701172,358.190430 271.433228,355.175110 
	C272.793243,352.807465 274.837006,350.795746 276.746490,348.786957 
	C284.624573,340.499176 292.677032,332.374817 300.459015,323.998627 
	C310.771301,312.898926 320.993286,301.711182 331.053162,290.382874 
	C336.739746,283.979309 345.185822,280.401215 353.145813,289.421509 
	C364.523285,302.314423 376.731506,314.471893 388.505707,327.017822 
	C396.518616,335.555969 404.392975,344.224121 412.335083,352.828796 
	C416.184906,356.999786 417.498840,363.335480 415.296173,367.193329 
	C412.892883,371.402618 407.625946,374.652588 403.540649,372.758484 
	C398.958832,370.634186 394.771423,367.147858 391.180206,363.498535 
	C382.036255,354.206604 373.320221,344.493500 364.231628,334.651184 
z"/>
</svg>