<?xml version="1.0" encoding="UTF-8"?>
<svg version="1.1" xmlns="http://www.w3.org/2000/svg" width="512" height="512">
<path d="M0 0 C1.14337783 -0.00869008 1.14337783 -0.00869008 2.30985421 -0.01755571 C4.859899 -0.03556997 7.40992181 -0.04647342 9.96000671 -0.05725098 C11.7901072 -0.06843052 13.62020568 -0.07994398 15.45030212 -0.09176636 C21.45570546 -0.12826573 27.46112951 -0.15353063 33.46659851 -0.1763916 C34.4889257 -0.18033747 35.51125289 -0.18428333 36.5645597 -0.18834877 C46.20795333 -0.22475482 55.85135437 -0.25619144 65.49479389 -0.27745819 C77.82230101 -0.30504863 90.14923382 -0.35586365 102.47650176 -0.43793249 C111.14926158 -0.49371531 119.82186547 -0.52269259 128.49479836 -0.5319314 C133.67304423 -0.53818828 138.85061581 -0.55630615 144.02866554 -0.60331726 C148.90035465 -0.64700214 153.77100109 -0.65746651 158.64285278 -0.64268875 C160.42786731 -0.64301723 162.21292683 -0.65528049 163.99776268 -0.68053818 C179.15724674 -0.88369589 179.15724674 -0.88369589 184.28048706 3.52880859 C185.33916406 4.71175018 186.36699712 5.92344507 187.35331726 7.1673584 C188.39425916 8.18930411 189.44577684 9.20074194 190.51347351 10.19470215 C191.48417981 11.16149365 192.45162437 12.13157088 193.41581726 13.1048584 C193.93474548 13.62572021 194.45367371 14.14658203 194.98832703 14.68322754 C198.26756475 17.99940864 201.36062 21.42165327 204.38066101 24.97595215 C207.09232432 27.98831476 209.97186327 30.81824849 212.85331726 33.6673584 C216.886302 37.65512396 220.74734191 41.68230748 224.41581726 46.0111084 C227.11362311 49.01350523 229.98375545 51.82996657 232.85331726 54.6673584 C236.88629836 58.65512671 240.74734188 62.68230745 244.41581726 67.0111084 C247.11362311 70.01350523 249.98375545 72.82996657 252.85331726 75.6673584 C256.88629836 79.65512671 260.74734188 83.68230745 264.41581726 88.0111084 C267.11363688 91.01352055 269.98393492 93.8297642 272.85331726 96.6673584 C281.03032459 104.76249188 281.03032459 104.76249188 284.60636902 109.20826721 C286.28562718 111.22104489 286.28562718 111.22104489 288.38713074 112.69468689 C292.56678836 116.19242924 294.50214967 119.48365668 295.05595398 124.87783813 C295.38660964 130.96545785 295.25322327 137.04780434 295.13456726 143.14001465 C295.11963215 145.39157597 295.10825114 147.64316343 295.1002655 149.89476013 C295.06983208 155.79894763 294.99134292 161.70154142 294.90263367 167.60510254 C294.82055336 173.63800501 294.78420657 179.67116695 294.74394226 185.70446777 C294.65834175 197.5261286 294.52193996 209.34661058 294.35331726 221.1673584 C295.4329071 221.43000488 296.51249695 221.69265137 297.62480164 221.96325684 C299.0655962 222.31758905 300.50634921 222.67209024 301.94706726 223.0267334 C303.01006042 223.28462646 303.01006042 223.28462646 304.0945282 223.54772949 C340.66912315 232.58627882 372.32092495 258.35630182 391.62187195 290.26452637 C405.11069291 313.26441942 411.57665019 338.45724815 411.60331726 365.0423584 C411.60432434 365.73610565 411.60533142 366.42985291 411.60636902 367.1446228 C411.59591837 377.7823097 411.00056569 387.81593824 408.35331726 398.1673584 C408.05167664 399.37778809 407.75003601 400.58821777 407.43925476 401.83532715 C396.79228821 441.52340979 371.74290292 473.20110651 336.79081726 494.2298584 C314.56977725 506.91630506 290.03788242 512.60808691 264.60331726 512.4798584 C263.47713486 512.47712418 263.47713486 512.47712418 262.32820129 512.47433472 C251.3841257 512.42958053 240.98374427 511.98999855 230.35331726 509.1673584 C229.68203796 509.00106934 229.01075867 508.83478027 228.31913757 508.66345215 C192.0285876 499.61176763 161.25769206 477.04258334 140.35331726 446.1673584 C139.67644026 444.83917929 139.00838647 443.50642769 138.35331726 442.1673584 C137.24759007 442.16377587 137.24759007 442.16377587 136.11952496 442.16012096 C118.14835413 442.10087723 100.17731955 442.02526744 82.20629406 441.93164349 C73.51548669 441.8867578 64.82471964 441.84732662 56.13383484 441.82092285 C48.55516953 441.79788407 40.97663258 441.7644208 33.3980692 441.71865684 C29.38861261 441.69480358 25.37928252 441.67602325 21.3697567 441.66974449 C17.58826031 441.66365764 13.80708728 441.64352956 10.02571106 441.61308289 C7.99178847 441.60023152 5.95779011 441.6018627 3.92382812 441.6040802 C-11.87739873 441.44368323 -27.12199856 436.4834962 -38.68965149 425.3236084 C-50.82194821 411.95628746 -54.95564947 397.79684084 -54.91410828 380.11933899 C-54.91784845 378.69039139 -54.92245143 377.26144584 -54.92783892 375.8325035 C-54.94003918 371.91930653 -54.93981197 368.00619524 -54.93745017 364.0929836 C-54.93704125 359.86719223 -54.9480884 355.64142805 -54.95756531 351.41564941 C-54.97416029 343.14123045 -54.97967419 334.86683999 -54.98079006 326.59240577 C-54.98174131 319.86406136 -54.98585545 313.13572632 -54.99219131 306.40738487 C-55.00980014 287.31837656 -55.01903082 268.22939071 -55.01753037 249.14037422 C-55.01745045 248.11182539 -55.01737054 247.08327655 -55.01728821 246.02355957 C-55.01720645 244.99375029 -55.01712469 243.96394101 -55.01704045 242.90292539 C-55.0162278 226.21883948 -55.03536115 209.53484389 -55.06356494 192.8507841 C-55.09231638 175.7070435 -55.10610397 158.56334691 -55.10437739 141.41958159 C-55.10371424 131.79978634 -55.10917364 122.18008577 -55.13073349 112.56031227 C-55.1489751 104.36878389 -55.15326824 96.17739311 -55.13971464 87.98585317 C-55.13319982 83.81001625 -55.1330137 79.63444309 -55.15042114 75.45863152 C-55.16622331 71.62835104 -55.16321622 67.79854189 -55.14585288 63.96827241 C-55.1413628 61.94223051 -55.15638405 59.91617357 -55.17233217 57.89018947 C-55.04993633 41.52626124 -49.33965714 27.32238648 -38.05293274 15.45251465 C-27.48179914 5.41336992 -14.55756753 0.0383079 0 0 Z M-23.64668274 33.1673584 C-31.69378626 43.61474519 -32.94500912 51.92316599 -32.91410828 64.80487061 C-32.9178475 66.20138219 -32.9224501 67.59789168 -32.92783892 68.99439788 C-32.94005084 72.82250333 -32.93981059 76.65052127 -32.93745017 80.47864175 C-32.93704154 84.61102403 -32.94808554 88.74337843 -32.95756531 92.87574768 C-32.97416648 100.96848823 -32.97967446 109.06119964 -32.98079006 117.15395579 C-32.98174098 123.73359996 -32.98585345 130.31323454 -32.99219131 136.89287567 C-33.0098015 155.55522334 -33.01903056 174.21754802 -33.01753037 192.87990406 C-33.01745045 193.88564778 -33.01737054 194.8913915 -33.01728821 195.9276123 C-33.01720645 196.93458679 -33.01712469 197.94156127 -33.01704045 198.97905013 C-33.01622766 215.29595961 -33.03536396 231.61277674 -33.06356494 247.92965952 C-33.09230576 264.69141476 -33.10610457 281.45312499 -33.10437739 298.2149055 C-33.10371389 307.62226559 -33.10918858 317.02952889 -33.13073349 326.43686676 C-33.14896107 334.44695242 -33.1532797 342.45689741 -33.13971464 350.46699485 C-33.13319287 354.55144218 -33.133039 358.63561975 -33.15042114 362.72004128 C-33.16619227 366.46452469 -33.16324756 370.20852537 -33.14585288 373.9529973 C-33.14134985 375.93781697 -33.15640857 377.92265186 -33.17233217 379.90741277 C-33.08745596 390.96687105 -30.63855262 401.10476401 -22.64668274 409.1673584 C-14.31652409 415.85580695 -5.81261147 419.29816972 4.93421936 419.28761292 C6.56210892 419.28967491 6.56210892 419.28967491 8.22288513 419.29177856 C9.39820801 419.28818329 10.57353088 419.28458801 11.7844696 419.28088379 C13.0338028 419.28102982 14.28313599 419.28117584 15.57032776 419.28132629 C18.98311068 419.28075036 22.39583259 419.27574637 25.80860472 419.26875234 C29.38003578 419.26248716 32.95146773 419.2619125 36.52290344 419.26072693 C43.28007798 419.25762293 50.03723628 419.24942212 56.79440367 419.23937744 C64.48967831 419.22818735 72.18495373 419.22269856 79.88023448 419.217682 C95.7046048 419.20723871 111.52895893 419.18965734 127.35331726 419.1673584 C127.09540909 418.32337494 127.09540909 418.32337494 126.83229065 417.46234131 C126.04202219 414.87012782 125.25624102 412.27657409 124.47050476 409.6829834 C124.20004333 408.79820312 123.92958191 407.91342285 123.65092468 407.00183105 C119.38706403 392.89280052 118.08583148 379.53454362 118.04081726 364.8548584 C118.03516754 363.83518982 118.03516754 363.83518982 118.02940369 362.79492188 C118.0066391 354.68926025 118.47808438 346.92828203 119.92680359 338.94787598 C120.33340358 336.29717917 120.38397095 333.842336 120.35331726 331.1673584 C119.19930923 331.16371277 118.04530121 331.16006714 116.85632324 331.15631104 C105.98248078 331.11937466 95.10892188 331.06161673 84.2352953 330.98345566 C78.64498531 330.94394143 73.05483377 330.91177222 67.46440125 330.8963623 C62.06960113 330.88122185 56.67523651 330.84682242 51.28063011 330.79904938 C49.22218803 330.78420868 47.16368378 330.77631585 45.10518837 330.77547455 C42.22233741 330.77311126 39.34069626 330.74608282 36.45805359 330.71325684 C35.60641129 330.7182872 34.75476898 330.72331757 33.87731934 330.72850037 C29.83659381 330.65728351 27.82895908 330.4689048 24.33505249 328.25384521 C21.71828543 325.49875973 21.45338515 323.8698993 21.22050476 320.1986084 C21.43606849 316.90175139 22.44962629 314.83252576 24.35331726 312.1673584 C28.98436381 309.53613539 33.835473 309.86082192 39.00883484 309.84851074 C39.97516846 309.83846512 40.94150208 309.82841949 41.93711853 309.81806946 C45.1240226 309.78723421 48.31084264 309.7702012 51.49784851 309.7532959 C53.71031416 309.73458455 55.92277267 309.71501116 58.13522339 309.6946106 C63.95319918 309.64328005 69.77119811 309.60365913 75.58927917 309.56646729 C81.5282616 309.52643353 87.46714769 309.47533829 93.40605164 309.4251709 C105.05507251 309.32840062 116.70414778 309.24399924 128.35331726 309.1673584 C128.6498822 308.58881104 128.94644714 308.01026367 129.2519989 307.41418457 C134.57332947 297.06297621 139.83617893 286.82567338 146.35331726 277.1673584 C145.74978581 277.16497005 145.14625437 277.16258169 144.52443409 277.16012096 C129.83501596 277.10096915 115.1457454 277.02541792 100.45650959 276.93164349 C93.35287269 276.8866896 86.24928587 276.84727407 79.14555359 276.82092285 C72.29197223 276.79548398 65.4386229 276.75457655 58.58518028 276.70417213 C55.96851049 276.68746801 53.35180213 276.67597589 50.73508644 276.66974449 C47.07414437 276.66014227 43.41377681 276.63212806 39.75297546 276.59973145 C38.12485931 276.60188408 38.12485931 276.60188408 36.46385193 276.6040802 C27.21822489 276.48812743 27.21822489 276.48812743 23.35331726 273.1673584 C21.04891471 269.50126344 21.23837635 266.2904111 21.57597351 262.13220215 C22.76813751 259.1188429 24.70124488 257.96190939 27.35331726 256.1673584 C30.12426186 255.68468952 30.12426186 255.68468952 33.19551086 255.7089386 C34.36446899 255.70803223 35.53342712 255.70712585 36.73780823 255.70619202 C38.64857651 255.73494667 38.64857651 255.73494667 40.59794617 255.76428223 C41.96012191 255.77028562 43.3223071 255.77439746 44.68449402 255.77676392 C47.61423475 255.78513088 50.54357062 255.80534552 53.47317886 255.83432961 C58.11414055 255.87863345 62.75474146 255.88707507 67.39588928 255.88896179 C80.5921063 255.89949704 93.78785355 255.9528144 106.98368835 256.05383301 C114.2749532 256.10933742 121.56560811 256.13226524 128.85708177 256.12050647 C133.46216661 256.11495125 138.06464868 256.14905877 142.66926122 256.21330893 C145.54794748 256.24387871 148.42564237 256.23634779 151.30439758 256.21855545 C153.25503501 256.21745099 155.20554261 256.26089489 157.15565491 256.3061676 C166.85490645 256.18343814 171.50542611 252.77106897 178.35331726 246.1673584 C182.4244402 243.11208766 186.91791065 240.65206999 191.35331726 238.1673584 C191.94709167 237.83349121 192.54086609 237.49962402 193.15263367 237.15563965 C218.26594661 223.27985309 243.87453695 219.59129741 272.35331726 218.1673584 C272.35331726 191.1073584 272.35331726 164.0473584 272.35331726 136.1673584 C250.84417282 135.95764969 250.84417282 135.95764969 229.33476257 135.77941895 C226.61697546 135.74710196 223.89920066 135.71372446 221.18144226 135.67907715 C220.14754364 135.6747039 220.14754364 135.6747039 219.09275818 135.67024231 C204.05273364 135.59831743 188.5045643 133.31860544 177.35331726 122.1673584 C165.75606534 107.78358141 164.07961271 92.95224213 163.93925476 74.99938965 C163.9205032 73.46810408 163.90092696 71.93682841 163.88056946 70.40556335 C163.82966277 66.41252532 163.78981777 62.41945393 163.75242615 58.42626953 C163.71212357 54.33662958 163.66115227 50.24712334 163.61112976 46.15759277 C163.51486277 38.16094 163.43030373 30.16421995 163.35331726 22.1673584 C141.76924182 22.07378867 120.18519998 22.00331731 98.60096264 21.96010971 C88.57832229 21.93951166 78.5558082 21.91144388 68.5332489 21.86560059 C59.79442978 21.82564829 51.05570213 21.79990556 42.31679422 21.79100442 C37.69243658 21.78580386 33.06834054 21.77363844 28.444067 21.74443817 C24.08479556 21.71713626 19.72589164 21.70894303 15.36654282 21.71492767 C13.77309861 21.71383401 12.17964114 21.70596846 10.58627129 21.6905365 C-2.56675057 21.5694773 -14.03676253 23.34026485 -23.64668274 33.1673584 Z M186.35331726 40.1673584 C186.2770991 47.72954841 186.22464657 55.29163891 186.18852234 62.85412598 C186.17345882 65.4254527 186.15300406 67.99675382 186.1269989 70.56799316 C186.09050965 74.26914802 186.07356605 77.9699624 186.06034851 81.67126465 C186.04486465 82.81631973 186.0293808 83.96137482 186.01342773 85.14112854 C186.01144655 94.58912824 187.93861679 100.33427606 194.38847351 107.3704834 C200.0470451 112.54532024 206.68665956 114.30123079 214.23539734 114.28088379 C215.64629387 114.28077049 215.64629387 114.28077049 217.08569336 114.28065491 C218.08795456 114.27549362 219.09021576 114.27033234 220.12284851 114.26501465 C221.15898788 114.2635997 222.19512726 114.26218475 223.26266479 114.26072693 C226.5637453 114.25514082 229.86475735 114.24259082 233.16581726 114.2298584 C235.40735274 114.22484161 237.64888928 114.22027901 239.89042664 114.21618652 C245.3780801 114.20517593 250.86569379 114.18845158 256.35331726 114.1673584 C254.46904003 110.82380993 252.55586851 108.13386459 249.80644226 105.46032715 C249.12581726 104.79065918 248.44519226 104.12099121 247.74394226 103.43103027 C246.68433289 102.4033252 246.68433289 102.4033252 245.60331726 101.3548584 C240.86212665 96.7330821 236.31520386 92.05641118 231.99687195 87.0357666 C229.57434589 84.28181652 226.97838133 81.72636125 224.35331726 79.1673584 C220.47350944 75.34017436 216.79066596 71.44659217 213.25956726 67.2923584 C210.2371438 63.92309945 206.9904949 60.78208476 203.7688446 57.60461426 C200.34220202 54.2076887 197.10794421 50.72014049 194.04862976 46.98376465 C192.52076887 45.34677084 190.97143499 43.97553292 189.24736023 42.55383301 C188.29232605 41.76629639 187.33729187 40.97875977 186.35331726 40.1673584 Z M182.35331726 271.1673584 C181.10402455 272.18905719 179.85410251 273.20998735 178.60331726 274.2298584 C157.29015587 292.82219068 144.92299163 320.81322369 140.35331726 348.1673584 C140.22054382 348.9407959 140.08777039 349.7142334 139.95097351 350.5111084 C135.50362904 382.19082241 145.31962084 414.93152668 164.10331726 440.4173584 C173.58089377 452.80064588 184.35588699 462.61188986 197.35331726 471.1673584 C198.1460907 471.71778809 198.93886414 472.26821777 199.75566101 472.83532715 C224.77015905 489.23323184 259.33730714 494.38246501 288.36039734 488.64562988 C321.74154351 481.20893168 350.81059194 461.88187098 369.68486023 433.17468262 C387.20707996 405.54006899 393.44215721 372.26801014 386.94657898 340.15661621 C379.55365532 307.45746106 360.66464022 278.75708095 332.31425476 260.5970459 C330.99742558 259.78149869 329.67717974 258.9714383 328.35331726 258.1673584 C327.73488953 257.78998535 327.11646179 257.4126123 326.47929382 257.02380371 C316.64906945 251.14448291 306.36279412 247.24901219 295.35331726 244.1673584 C293.54927429 243.65495605 293.54927429 243.65495605 291.70878601 243.13220215 C253.64913263 234.26673576 211.35400378 245.18234119 182.35331726 271.1673584 Z " fill="#000000" transform="translate(77.64668273925781,-0.1673583984375)"/>
<path d="M0 0 C3.05146361 1.96456133 5.47735748 4.40615386 8 7 C8.598125 7.57492187 9.19625 8.14984375 9.8125 8.7421875 C13.5106753 12.32479482 16.89110971 16.13253806 20.25 20.03125 C21.93798286 21.93023071 23.68769734 23.72005988 25.5 25.5 C28.59356643 28.53832417 31.42105507 31.7476532 34.25 35.03125 C35.93798286 36.93023071 37.68769734 38.72005988 39.5 40.5 C41.93389732 42.89053167 44.21355559 45.35046262 46.4375 47.9375 C48.85617779 50.74576347 51.35899683 53.39970593 54 56 C57.88171437 59.82905545 61.46793094 63.84937062 65 68 C65.78375 68.86625 66.5675 69.7325 67.375 70.625 C69.39937804 73.58370637 69.92821217 75.41060866 70 79 C68.81617805 82.88030529 67.84068038 85.27608079 64.75 87.9375 C61.19760914 89.31001465 58.78601557 89.46494928 55 89 C49.50170683 85.93409541 45.60033139 81.67209179 41.375 77.0625 C40.32058716 75.92687622 40.32058716 75.92687622 39.24487305 74.76831055 C37.15739338 72.51753514 35.07802579 70.2595016 33 68 C31.91583288 66.82769174 30.83124157 65.65577554 29.74609375 64.484375 C27.90459462 62.49598251 26.06813253 60.50314048 24.23353577 58.50836182 C20.87842745 54.86429619 17.50854984 51.23405634 14.13671875 47.60546875 C13.2459967 46.64658752 13.2459967 46.64658752 12.33728027 45.66833496 C10.89164239 44.11210978 9.44583871 42.55603861 8 41 C7.99853344 41.59745592 7.99706688 42.19491184 7.99555588 42.81047249 C7.95847899 57.35839583 7.89945264 71.90611609 7.81609726 86.45384407 C7.77631425 93.48908996 7.74391811 100.52422412 7.72900391 107.55957031 C7.71459151 114.34836505 7.67947194 121.13680095 7.63169098 127.92544174 C7.61684723 130.51616278 7.60895728 133.10693326 7.60811615 135.69769669 C7.60575389 139.32504501 7.57873136 142.95143061 7.54589844 146.57861328 C7.55344398 148.18731041 7.55344398 148.18731041 7.56114197 149.82850647 C7.47681435 155.84543324 7.04288093 159.42868781 3 164 C0.42879992 165.53211716 -2.01943874 165.92214952 -5 166 C-8.76475804 164.95080514 -11.08763711 164.04448563 -13.67219543 161.08564758 C-15.70735971 156.35618672 -15.43917085 151.7892722 -15.43237305 146.69213867 C-15.44766052 144.97929184 -15.44766052 144.97929184 -15.46325684 143.23184204 C-15.49343161 139.46050132 -15.50265994 135.68941442 -15.51171875 131.91796875 C-15.52856205 129.30193739 -15.54671181 126.68591413 -15.56611633 124.06990051 C-15.60975375 117.89000766 -15.63831755 111.71014113 -15.66143972 105.53014117 C-15.68850626 98.4925962 -15.73241681 91.45518769 -15.77772844 84.41774023 C-15.87053508 69.94524017 -15.94223402 55.4726818 -16 41 C-17.1263331 42.1204085 -18.25182256 43.24166515 -19.37695312 44.36328125 C-20.00380005 44.98759033 -20.63064697 45.61189941 -21.27648926 46.25512695 C-23.10346649 48.10474892 -24.82236666 50.01422993 -26.5 52 C-28.7455794 54.60647609 -31.04551512 57.08934521 -33.5 59.5 C-35.93389732 61.89053167 -38.21355559 64.35046262 -40.4375 66.9375 C-43.47213265 70.46093255 -46.69683944 73.72209449 -50.015625 76.9765625 C-52.62220275 79.63445083 -54.99854347 82.45939034 -57.359375 85.3359375 C-60.38020267 88.39991985 -62.65179008 88.96683715 -66.9375 89.375 C-70.09516598 89.29267724 -71.04689792 88.97145344 -73.875 87.25 C-76.79007536 84.16344962 -77.82513599 82.34062405 -78.375 78.125 C-76.97796919 66.48307662 -60.86756624 54.57781475 -53.12890625 46.37890625 C-44.97364545 37.73665064 -36.87484267 29.04146587 -28.8125 20.3125 C-28.32813477 19.78906006 -27.84376953 19.26562012 -27.34472656 18.72631836 C-24.85807257 16.03411772 -22.39116369 13.32660694 -19.94921875 10.59375 C-19.45381592 10.04291748 -18.95841309 9.49208496 -18.44799805 8.92456055 C-17.08588539 7.40811646 -15.73022063 5.88588776 -14.375 4.36328125 C-10.22298946 0.23175761 -5.86340927 -1.38842114 0 0 Z " fill="#000000" transform="translate(346,283)"/>
<path d="M0 0 C1.6278669 -0.005476 1.6278669 -0.005476 3.28862 -0.01106262 C6.86827342 -0.01915459 10.4474723 -0.00556961 14.02709961 0.0090332 C16.51761373 0.00955193 19.00812826 0.00903374 21.49864197 0.00752258 C27.38222969 0.00762372 33.26565117 0.02248925 39.14919895 0.04317361 C45.16890703 0.06287721 51.1884692 0.05868775 57.2081995 0.05261517 C62.34942127 0.04927468 67.49059151 0.05590663 72.63180351 0.0657444 C75.09778003 0.06959441 77.56376228 0.07074544 80.02974129 0.06915855 C83.47436588 0.06878791 86.91870024 0.08140785 90.36328125 0.09765625 C91.38316132 0.09517883 92.40304138 0.09270142 93.4538269 0.09014893 C99.44696853 0.1352912 103.78567883 0.29307852 108.42944336 4.43481445 C110.75277127 8.479126 110.92834892 11.81022811 110.11694336 16.37231445 C108.31024019 19.63827787 107.02548956 20.96572341 103.63049316 22.48504639 C98.88462101 23.68350978 94.40151144 23.65108037 89.52514648 23.63110352 C88.47076889 23.63460815 87.4163913 23.63811279 86.33006287 23.64172363 C82.85270561 23.65050967 79.37555261 23.64470273 75.89819336 23.63793945 C73.47733522 23.639287 71.05647734 23.64122828 68.63562012 23.64373779 C63.56507792 23.64668482 58.49460625 23.64240487 53.42407227 23.63305664 C46.92744584 23.62166244 40.43098468 23.62822415 33.93436432 23.64020157 C28.93636838 23.64743147 23.93841156 23.64512702 18.94041443 23.63994598 C16.54503866 23.63861262 14.14965933 23.64024622 11.75428772 23.64490509 C8.40567628 23.64998879 5.05733181 23.64223388 1.70874023 23.63110352 C0.72050766 23.63515198 -0.26772491 23.63920044 -1.28590393 23.64337158 C-7.23726023 23.60675892 -12.17348833 23.27633543 -17.19555664 19.74731445 C-19.53150394 16.45968492 -20.06570293 13.32204037 -19.88305664 9.37231445 C-18.68015435 5.62208965 -17.71112228 3.93027148 -14.44215393 1.72761536 C-9.55723342 -0.13255779 -5.18444012 -0.03893331 0 0 Z " fill="#000000" transform="translate(117.883056640625,200.627685546875)"/>
</svg>
